<svg width="24" height="24" viewBox="0 0 24 24" fill="none" xmlns="http://www.w3.org/2000/svg">
<path d="M5.6577 12C5.66202 14.2618 5.13766 16.4934 4.12645 18.5166C4.07204 18.6261 3.98812 18.7182 3.88415 18.7825C3.78017 18.8469 3.66029 18.8809 3.53802 18.8808C3.42641 18.8805 3.31672 18.8518 3.2193 18.7974C3.12188 18.7429 3.03995 18.6645 2.98127 18.5696C2.92258 18.4747 2.88907 18.3664 2.88391 18.2549C2.87875 18.1434 2.9021 18.0324 2.95177 17.9325C3.8724 16.0907 4.34958 14.0591 4.3452 12C4.34305 10.852 4.60013 9.7183 5.09726 8.68351C5.59439 7.64872 6.31875 6.73953 7.2163 6.02375C7.28359 5.96982 7.36085 5.92966 7.44366 5.90559C7.52647 5.88151 7.61321 5.87398 7.69893 5.88342C7.78465 5.89287 7.86767 5.91911 7.94325 5.96064C8.01883 6.00217 8.08549 6.05818 8.13942 6.12547C8.19336 6.19276 8.23351 6.27002 8.25759 6.35283C8.28166 6.43564 8.28919 6.52238 8.27975 6.6081C8.2703 6.69382 8.24407 6.77684 8.20254 6.85242C8.16101 6.928 8.105 6.99466 8.0377 7.04859C7.29363 7.64132 6.69311 8.3945 6.28099 9.25189C5.86887 10.1093 5.6558 11.0487 5.6577 12ZM12.0015 11.3437C11.8274 11.3437 11.6605 11.4129 11.5374 11.536C11.4143 11.659 11.3452 11.826 11.3452 12C11.3458 15.4459 10.4716 18.8356 8.80442 21.8514C8.72001 22.0037 8.69955 22.1833 8.74755 22.3507C8.79555 22.518 8.90807 22.6595 9.06036 22.7439C9.21265 22.8283 9.39224 22.8488 9.55962 22.8008C9.72699 22.7528 9.86845 22.6403 9.95286 22.488C11.7276 19.2773 12.6583 15.6686 12.6577 12C12.6577 11.826 12.5886 11.659 12.4655 11.536C12.3424 11.4129 12.1755 11.3437 12.0015 11.3437ZM12.0015 7.84375C10.8991 7.84375 9.84199 8.28164 9.06254 9.06109C8.28309 9.84054 7.8452 10.8977 7.8452 12C7.8452 12.174 7.91434 12.341 8.03742 12.464C8.16049 12.5871 8.3274 12.6562 8.50145 12.6562C8.6755 12.6562 8.84242 12.5871 8.96549 12.464C9.08856 12.341 9.1577 12.174 9.1577 12C9.1577 11.2458 9.45731 10.5225 9.99062 9.98916C10.5239 9.45586 11.2472 9.15625 12.0015 9.15625C12.7557 9.15625 13.479 9.45586 14.0123 9.98916C14.5456 10.5225 14.8452 11.2458 14.8452 12C14.854 15.5114 14.0802 18.9806 12.58 22.1555C12.5431 22.2335 12.5218 22.3181 12.5175 22.4044C12.5132 22.4907 12.526 22.5769 12.555 22.6583C12.5841 22.7397 12.6288 22.8145 12.6868 22.8785C12.7448 22.9426 12.8148 22.9946 12.8929 23.0316C12.9709 23.0685 13.0555 23.0898 13.1418 23.0941C13.2281 23.0984 13.3143 23.0856 13.3957 23.0566C13.477 23.0276 13.5519 22.9828 13.6159 22.9248C13.68 22.8668 13.732 22.7968 13.769 22.7187C15.352 19.3678 16.168 15.7061 16.1577 12C16.1577 10.8977 15.7198 9.84054 14.9404 9.06109C14.1609 8.28164 13.1038 7.84375 12.0015 7.84375ZM12.0015 0.84375C9.04361 0.846935 6.20782 2.02334 4.11631 4.11486C2.0248 6.20637 0.848388 9.04216 0.845204 12C0.846159 13.1176 0.656785 14.2272 0.285203 15.2812C0.254041 15.363 0.239549 15.4502 0.242582 15.5377C0.245614 15.6251 0.266108 15.7111 0.302859 15.7905C0.33961 15.8699 0.391875 15.9412 0.456579 16.0001C0.521283 16.0591 0.597119 16.1044 0.679624 16.1336C0.762129 16.1628 0.849637 16.1752 0.936999 16.17C1.02436 16.1649 1.10981 16.1423 1.18832 16.1037C1.26684 16.065 1.33682 16.0111 1.39417 15.945C1.45151 15.8788 1.49506 15.8019 1.52223 15.7187C1.94405 14.5243 2.15896 13.2667 2.1577 12C2.1577 9.38927 3.19481 6.88548 5.04087 5.03942C6.88693 3.19336 9.39073 2.15625 12.0015 2.15625C14.6122 2.15625 17.116 3.19336 18.962 5.03942C20.8081 6.88548 21.8452 9.38927 21.8452 12C21.8453 14.0135 21.65 16.0223 21.2622 17.9981C21.2285 18.1688 21.2639 18.346 21.3607 18.4906C21.4575 18.6352 21.6078 18.7354 21.7785 18.7692C21.8207 18.7768 21.8635 18.7808 21.9065 18.7812C22.0584 18.7811 22.2055 18.7282 22.3228 18.6317C22.4401 18.5351 22.5202 18.4009 22.5496 18.2519C22.9545 16.1926 23.1581 14.0987 23.1577 12C23.1542 9.04224 21.9777 6.20663 19.8863 4.11518C17.7948 2.02373 14.9592 0.847224 12.0015 0.84375ZM8.2827 14.858C8.11214 14.8235 7.93486 14.8581 7.78984 14.9543C7.64483 15.0505 7.54396 15.2004 7.50942 15.3709C7.14951 17.14 6.50533 18.8391 5.60192 20.4022C5.55883 20.4769 5.53088 20.5593 5.51965 20.6448C5.50842 20.7303 5.51414 20.8172 5.53649 20.9005C5.55883 20.9837 5.59736 21.0618 5.64987 21.1302C5.70239 21.1986 5.76786 21.256 5.84255 21.2991C5.91724 21.3422 5.99968 21.3701 6.08518 21.3813C6.17067 21.3926 6.25754 21.3868 6.34082 21.3645C6.4241 21.3422 6.50217 21.3036 6.57056 21.2511C6.63895 21.1986 6.69633 21.1331 6.73942 21.0584C7.71382 19.3713 8.40825 17.5374 8.79567 15.628C8.8292 15.4579 8.79408 15.2815 8.69797 15.1372C8.60186 14.9929 8.45257 14.8925 8.2827 14.858ZM12.0015 4.34375C11.6815 4.3437 11.3619 4.36343 11.0444 4.40281C10.8717 4.42442 10.7146 4.51377 10.6077 4.6512C10.5009 4.78863 10.453 4.96288 10.4746 5.13562C10.4962 5.30837 10.5855 5.46545 10.723 5.57232C10.8604 5.67918 11.0346 5.72708 11.2074 5.70547C12.1005 5.59279 13.0073 5.67147 13.8677 5.93629C14.728 6.2011 15.5221 6.64599 16.1973 7.24137C16.8724 7.83676 17.4131 8.56901 17.7835 9.38948C18.1538 10.2099 18.3453 11.0998 18.3452 12C18.3454 13.143 18.2746 14.2849 18.133 15.4191C18.1117 15.5916 18.1597 15.7656 18.2665 15.9028C18.3734 16.04 18.5303 16.1292 18.7029 16.1508C18.7302 16.1522 18.7576 16.1522 18.7849 16.1508C18.9448 16.1507 19.0992 16.0921 19.2191 15.9862C19.3389 15.8803 19.4159 15.7342 19.4357 15.5755C19.5828 14.3893 19.6569 13.1952 19.6577 12C19.6554 9.97015 18.848 8.02409 17.4127 6.58877C15.9774 5.15345 14.0313 4.34607 12.0015 4.34375ZM18.284 18.3656C18.2005 18.3441 18.1136 18.3392 18.0283 18.3512C17.9429 18.3632 17.8608 18.3919 17.7865 18.4357C17.7123 18.4795 17.6474 18.5375 17.5956 18.6063C17.5437 18.6752 17.506 18.7536 17.4844 18.837C17.3236 19.4648 17.1366 20.0938 16.931 20.7062C16.8756 20.8713 16.888 21.0516 16.9655 21.2075C17.0431 21.3634 17.1794 21.4821 17.3444 21.5375C17.5095 21.5929 17.6898 21.5805 17.8457 21.5029C18.0016 21.4254 18.1203 21.2891 18.1757 21.1241C18.3944 20.4809 18.5858 19.8225 18.7554 19.1641C18.7986 18.9957 18.7732 18.817 18.6848 18.6673C18.5964 18.5176 18.4523 18.4091 18.284 18.3656Z" fill="#2377F1"/>
</svg>
