<svg width="28" height="28" viewBox="0 0 28 28" fill="none" xmlns="http://www.w3.org/2000/svg">
<path d="M8.16536 3.20801H4.3737C4.06428 3.20801 3.76753 3.33092 3.54874 3.54972C3.32995 3.76851 3.20703 4.06526 3.20703 4.37467V8.16634M24.7904 8.16634V4.37467C24.7904 4.06526 24.6675 3.76851 24.4487 3.54972C24.2299 3.33092 23.9331 3.20801 23.6237 3.20801H19.832M19.832 24.7913H23.6237C23.9331 24.7913 24.2299 24.6684 24.4487 24.4496C24.6675 24.2308 24.7904 23.9341 24.7904 23.6247V19.833M3.20703 19.833V23.6247C3.20703 23.9341 3.32995 24.2308 3.54874 24.4496C3.76753 24.6684 4.06428 24.7913 4.3737 24.7913H8.16536M9.49595 11.7031V9.62467M18.5014 11.7031V9.62467M12.6133 16.5518H13.3063C13.6737 16.5518 14.0261 16.4058 14.2859 16.146C14.5457 15.8862 14.6917 15.5338 14.6917 15.1663V9.62467M18.1549 18.8256C17.0256 20.3224 15.3013 20.708 13.9987 20.708C12.6961 20.708 10.9718 20.323 9.84245 18.8256" stroke="#2377F1" stroke-width="1.5" stroke-linecap="round" stroke-linejoin="round"/>
</svg>
